<svg xmlns="http://www.w3.org/2000/svg" version="1.1" xmlns:xlink="http://www.w3.org/1999/xlink" xmlns:svgjs="http://svgjs.dev/svgjs"  height="1em" viewBox="0 0 2000 1999"><g transform="matrix(1,0,0,1,-0.4314868804665366,-0.4312711370263287)"><svg viewBox="0 0 343 343" data-background-color="#fafafa" preserveAspectRatio="xMidYMid meet" height="1em"  xmlns="http://www.w3.org/2000/svg" xmlns:xlink="http://www.w3.org/1999/xlink"><g id="tight-bounds" transform="matrix(1,0,0,1,0.07400000000001228,0.07400000000001228)"><svg viewBox="0 0 342.8515585177538 342.8515585177538" height="342.8515585177538" width="342.8515585177538"><g><svg></svg></g><g><svg viewBox="0 0 342.8515585177538 342.8515585177538" height="342.8515585177538" width="342.8515585177538"><g><path d="M0 171.426c0-94.676 76.75-171.426 171.426-171.426 94.676 0 171.426 76.75 171.426 171.426 0 94.676-76.75 171.426-171.426 171.426-94.676 0-171.426-76.75-171.426-171.426zM171.426 329.948c87.549 0 158.522-70.973 158.522-158.522 0-87.549-70.973-158.522-158.522-158.522-87.549 0-158.522 70.973-158.522 158.522 0 87.549 70.973 158.522 158.522 158.522z" data-fill-palette-color="tertiary" fill="#040405" stroke="transparent"></path><ellipse rx="164.56874808852183" ry="164.56874808852183" cx="171.4257792588769" cy="171.4257792588769" fill="#040405" stroke="transparent" stroke-width="0" fill-opacity="1" data-fill-palette-color="tertiary"></ellipse></g><g transform="matrix(1,0,0,1,64.84655864529836,99.88159059434469)"><svg viewBox="0 0 213.15844122715708 143.08837732906443" height="143.08837732906443" width="213.15844122715708"><g><svg viewBox="0 0 213.15844122715708 143.08837732906443" height="143.08837732906443" width="213.15844122715708"><g><svg viewBox="0 0 213.15844122715714 143.08837732906446" height="143.08837732906443" width="213.15844122715708"><g><svg viewBox="0 0 213.15844122715714 143.08837732906446" height="143.08837732906446" width="213.15844122715714"><g id="textblocktransform"><svg viewBox="0 0 213.15844122715714 143.08837732906446" height="143.08837732906446" width="213.15844122715714" id="textblock"><g><svg viewBox="0 0 213.15844122715714 143.08837732906446" height="143.08837732906446" width="213.15844122715714"><g transform="matrix(1,0,0,1,0,0)"><svg width="213.15844122715714" viewBox="4.76 -35.55 52.95 35.55" height="143.08837732906446" data-palette-color="#fafafa"><path d="M4.76-35.55L4.76 0 15.94 0Q18.14-0.05 20.15-0.73 22.17-1.42 23.71-2.71L23.71-2.71Q25.24-3.98 26.14-5.82 27.03-7.67 27-10.03L27-10.03Q27-11.65 26.48-13.05 25.95-14.45 25.02-15.55L25.02-15.55Q24.1-16.63 22.79-17.42 21.48-18.21 20.04-18.53L20.04-18.53 20.02-18.63Q21.34-19.17 22.35-19.84 23.36-20.51 24.15-21.46L24.15-21.46Q24.9-22.39 25.33-23.58 25.76-24.78 25.78-26.27L25.78-26.27Q25.78-28.69 24.83-30.43 23.88-32.18 22.29-33.3L22.29-33.3Q20.7-34.42 18.66-34.97 16.63-35.52 14.45-35.55L14.45-35.55 4.76-35.55ZM7.67-2.59L7.67-17.09 16.24-17.09Q17.8-17.04 19.21-16.55 20.63-16.06 21.73-15.19L21.73-15.19Q22.8-14.26 23.44-12.95 24.07-11.65 24.07-9.99L24.07-9.99Q24.07-8.25 23.43-6.9 22.78-5.54 21.66-4.59L21.66-4.59Q20.56-3.66 19.09-3.14 17.63-2.61 15.99-2.59L15.99-2.59 7.67-2.59ZM14.84-19.63L7.67-19.63 7.67-32.96 14.53-32.96Q16.09-32.93 17.59-32.56 19.09-32.18 20.26-31.4L20.26-31.4Q21.44-30.59 22.13-29.35 22.83-28.1 22.83-26.32L22.83-26.32Q22.83-24.63 22.16-23.39 21.48-22.14 20.36-21.34L20.36-21.34Q19.24-20.48 17.8-20.07 16.36-19.65 14.84-19.63L14.84-19.63ZM38.21 0L38.21-14.65 46.48-14.65Q48.8-14.67 50.84-15.38 52.88-16.09 54.42-17.43L54.42-17.43Q55.93-18.75 56.82-20.67 57.71-22.58 57.71-25.02L57.71-25.02Q57.71-27.49 56.83-29.42 55.95-31.35 54.42-32.71L54.42-32.71Q52.9-34.06 50.85-34.78 48.8-35.5 46.48-35.55L46.48-35.55 35.3-35.55 35.3 0 38.21 0ZM46.48-17.16L38.21-17.16 38.21-33.03 46.48-33.03Q48.24-33.01 49.77-32.43 51.29-31.86 52.41-30.81L52.41-30.81Q53.51-29.76 54.15-28.28 54.78-26.81 54.78-24.98L54.78-24.98Q54.78-23.17 54.14-21.73 53.49-20.29 52.37-19.29L52.37-19.29Q51.24-18.29 49.73-17.74 48.22-17.19 46.48-17.16L46.48-17.16Z" opacity="1" transform="matrix(1,0,0,1,0,0)" fill="#fafafa" class="wordmark-text-0" data-fill-palette-color="quaternary" id="text-0"></path></svg></g></svg></g></svg></g></svg></g><g></g></svg></g></svg></g></svg></g></svg></g><defs></defs></svg><rect width="342.8515585177538" height="342.8515585177538" fill="none" stroke="none" visibility="hidden"></rect></g></svg></g></svg>